<?xml version="1.0" encoding="utf-8"?>
<!-- Generator: Adobe Illustrator 27.1.1, SVG Export Plug-In . SVG Version: 6.00 Build 0)  -->
<svg version="1.1" id="Layer_2_00000183215224591421684770000009434627526343705750_"
	 xmlns="http://www.w3.org/2000/svg" xmlns:xlink="http://www.w3.org/1999/xlink" x="0px" y="0px" viewBox="0 0 605.3 129.1"
	 style="enable-background:new 0 0 605.3 129.1;" xml:space="preserve">
<g id="Art">
	<g>
		<path d="M147.3,28.6h15.7l13.9,39c1.1,3,1.9,5.2,2.4,6.7c0.5,1.4,1.3,3.6,2.3,6.6c0.5,1.4,1.1,3.5,1.9,6.2h0.2
			c1.8-5.8,3.8-11.9,6.1-18.3l14.1-40.2h15.2V99h-10.4V64.1c0-10,0.1-18.4,0.3-25.3l1.1,0.2l-21.6,60H178l-21.6-60l1-0.2
			c0.3,5.2,0.4,13.7,0.4,25.3V99h-10.4L147.3,28.6L147.3,28.6z"/>
		<path d="M239,97.1c-3.9-2.3-6.9-5.5-9.1-9.7c-2.2-4.1-3.3-8.8-3.3-13.9s1.1-9.7,3.3-13.8c2.2-4.1,5.2-7.3,9.1-9.7
			s8.3-3.5,13.1-3.5s9.2,1.2,13.1,3.5c3.9,2.3,6.9,5.5,9.1,9.7s3.3,8.7,3.3,13.8s-1.1,9.8-3.3,13.9s-5.2,7.3-9.1,9.7
			c-3.9,2.3-8.3,3.5-13.1,3.5C247.3,100.6,242.9,99.4,239,97.1L239,97.1z M260,90c2.2-1.5,4-3.6,5.3-6.4c1.3-2.8,1.9-6.2,1.9-10.1
			s-0.6-7.2-1.9-10c-1.3-2.8-3-5-5.3-6.5s-4.9-2.2-7.9-2.2s-5.6,0.7-7.9,2.2s-4.1,3.6-5.3,6.5s-1.9,6.1-1.9,10s0.6,7.2,1.9,10.1
			s3.1,5,5.3,6.4c2.3,1.5,4.9,2.2,7.9,2.2S257.7,91.5,260,90z"/>
		<path d="M279.4,48h11l10,30.8c1.1,3.5,2.1,7,3.2,10.5h0.1c2-6.7,3-10.2,3.1-10.5l9.6-30.8h10.6L309.6,99H297L279.4,48L279.4,48z"
			/>
		<path d="M341,97.2c-3.9-2.2-7-5.3-9.1-9.4c-2.1-4.1-3.2-8.8-3.2-14.2s1.1-9.9,3.4-14s5.3-7.3,9.1-9.6c3.8-2.3,8-3.4,12.5-3.4
			c5,0,9.4,1.2,13.1,3.5c3.7,2.3,6.6,5.8,8.7,10.2c2,4.5,3.1,9.8,3.2,16.1h-44.2v-8.1h37.9l-3.5,4c-0.1-5.4-1.4-9.6-4-12.7
			s-6.2-4.7-10.9-4.7c-2.8,0-5.2,0.7-7.5,2.1c-2.2,1.4-4,3.3-5.3,5.8s-2,5.3-2,8.5v3.7c0,3.4,0.7,6.4,2,9.1c1.3,2.6,3.2,4.7,5.5,6.1
			c2.4,1.5,5.1,2.2,8.2,2.2s5.4-0.6,7.4-1.8c2-1.2,3.4-2.7,4.4-4.7h10.9c-1.3,4.4-3.9,7.9-7.9,10.6s-9,4.1-15,4.1
			C349.5,100.6,344.9,99.4,341,97.2L341,97.2z"/>
		<path d="M384.9,48h9.9v8.1l-0.5-0.7c1.2-2.8,3.1-4.9,5.8-6.5c2.6-1.6,5.6-2.4,8.9-2.4s6.4,0.8,8.9,2.5s4.4,4.2,5.6,7.5l-1-0.2
			c1.3-2.9,3.4-5.2,6.3-7c3-1.8,6.2-2.7,9.9-2.7c3.4,0,6.4,0.7,9,2c2.6,1.3,4.7,3.4,6.2,6c1.5,2.7,2.3,6,2.3,10.1V99h-10.1V66.3
			c0-3.7-0.7-6.5-2.2-8.4s-3.7-2.9-6.6-2.9c-3.6,0-6.4,1.3-8.5,3.8s-3.1,6.2-3.1,11.1V99h-10.2V66.8c0-3.8-0.8-6.8-2.3-8.8
			c-1.5-2-3.8-3-6.8-3c-2.3,0-4.3,0.5-5.9,1.7s-3,2.8-4,5c-1,2.2-1.5,5-1.5,8.2V99h-10.2L384.9,48L384.9,48z"/>
		<path d="M476,97.2c-3.9-2.2-7-5.3-9.1-9.4c-2.1-4.1-3.2-8.8-3.2-14.2s1.1-9.9,3.4-14s5.3-7.3,9.1-9.6c3.8-2.3,8-3.4,12.5-3.4
			c5,0,9.4,1.2,13.1,3.5c3.7,2.3,6.6,5.8,8.7,10.2c2,4.5,3.1,9.8,3.2,16.1h-44.2v-8.1h37.9l-3.5,4c-0.1-5.4-1.4-9.6-4-12.7
			s-6.2-4.7-10.9-4.7c-2.8,0-5.2,0.7-7.5,2.1c-2.2,1.4-4,3.3-5.3,5.8s-2,5.3-2,8.5v3.7c0,3.4,0.7,6.4,2,9.1c1.3,2.6,3.2,4.7,5.5,6.1
			c2.4,1.5,5.1,2.2,8.2,2.2s5.4-0.6,7.4-1.8c2-1.2,3.4-2.7,4.4-4.7h10.9c-1.3,4.4-3.9,7.9-7.9,10.6s-9,4.1-15,4.1
			C484.4,100.6,479.9,99.4,476,97.2L476,97.2z"/>
		<path d="M519.9,48h10v8.6l-0.6-0.7c1.6-3,3.8-5.3,6.6-7c2.8-1.6,5.9-2.4,9.4-2.4s6.5,0.7,9.1,2.1c2.6,1.4,4.7,3.5,6.1,6.2
			c1.4,2.8,2.2,6.1,2.2,10.1V99h-10.2V65.9c0-3.4-0.8-6.1-2.4-8.1s-4-2.9-7.2-2.9c-2.3,0-4.5,0.5-6.5,1.7s-3.5,2.8-4.6,5.2
			S530,67,530,70.5V99h-10.2L519.9,48L519.9,48z"/>
		<path d="M596.8,55.9h-28.7v-8h28.7V55.9z M586.7,32.9v50.3c0,2.9,0.5,5,1.5,6.3s2.8,2,5.2,2c1.5,0,2.9-0.1,4.3-0.4v7.7
			c-0.8,0.3-1.9,0.5-3.2,0.6s-2.6,0.2-3.8,0.2c-2.8,0-5.2-0.5-7.3-1.5s-3.8-2.5-5-4.7c-1.2-2.2-1.9-4.9-1.9-8.3V32.9L586.7,32.9
			L586.7,32.9z"/>
		<g>
			<path d="M7.5,59v62.6h21.6l10.8-9.1V68.4L25.8,48.7L7.5,59z"/>
			<path d="M58.5,16.6l-9.5,12L89.6,41v54.4l21.6,0l10.4-8.8V7.5L58.5,16.6z"/>
			<path d="M80.9,104.5V47.3L42.2,35.5l-9.4,8.1l15.7,21.9v48h21.6C70.1,113.6,80.9,104.5,80.9,104.5z"/>
		</g>
	</g>
</g>
</svg>
