<?xml version="1.0" encoding="utf-8"?>
<!-- Generator: Adobe Illustrator 27.1.1, SVG Export Plug-In . SVG Version: 6.00 Build 0)  -->
<svg version="1.1" id="Layer_2_00000065784410930497659090000016262558406518636431_"
	 xmlns="http://www.w3.org/2000/svg" xmlns:xlink="http://www.w3.org/1999/xlink" x="0px" y="0px" viewBox="0 0 465.4 87"
	 style="enable-background:new 0 0 465.4 87;" xml:space="preserve">
<g id="Art">
	<g>
		<path d="M50,47.7c-2.3,6.4-4.4,12.5-6.1,18.3h-0.2c-0.8-2.8-1.4-4.8-1.9-6.2c-1-3-1.8-5.2-2.3-6.6c-0.5-1.4-1.3-3.7-2.4-6.7
			l-13.9-39H7.5V78h10.4V43c0-9.4-0.1-16.7-0.3-21.9L38.1,78h10.7l20.4-56.7C69,27.5,68.9,34.7,68.9,43V78h10.4V7.5H64.1L50,47.7
			L50,47.7z"/>
		<path d="M125.3,28.9c-3.9-2.3-8.3-3.5-13.1-3.5s-9.2,1.2-13.1,3.5c-3.9,2.3-6.9,5.5-9.1,9.7s-3.3,8.7-3.3,13.8s1.1,9.8,3.3,13.9
			c2.2,4.1,5.2,7.4,9.1,9.7s8.3,3.5,13.1,3.5s9.2-1.2,13.1-3.5c3.9-2.3,6.9-5.5,9.1-9.7c2.2-4.1,3.3-8.8,3.3-14s-1.1-9.7-3.3-13.9
			C132.3,34.4,129.2,31.2,125.3,28.9z M125.4,62.5c-1.3,2.8-3,5-5.3,6.4c-2.2,1.5-4.9,2.2-7.9,2.2s-5.6-0.7-7.8-2.2
			c-2.3-1.5-4.1-3.6-5.3-6.4c-1.3-2.8-1.9-6.2-1.9-10.1s0.6-7.2,1.9-10c1.3-2.8,3.1-5,5.3-6.5c2.3-1.5,4.9-2.2,7.8-2.2
			s5.7,0.7,7.9,2.2s4,3.6,5.3,6.5c1.3,2.8,1.9,6.1,1.9,10S126.7,59.7,125.4,62.5z"/>
		<path d="M166.9,57.8c-0.1,0.3-1.1,3.8-3.1,10.5h-0.1c-1.1-3.5-2.1-7-3.2-10.5l-10-30.8h-11l17.6,51h12.6l17.3-51h-10.6L166.9,57.8
			L166.9,57.8z"/>
		<path d="M235.7,39.2c-2.1-4.5-4.9-7.9-8.7-10.2c-3.7-2.4-8.1-3.5-13.1-3.5c-4.5,0-8.7,1.1-12.5,3.4s-6.9,5.5-9.1,9.6
			s-3.4,8.8-3.4,14s1.1,10.2,3.2,14.3c2.1,4.1,5.1,7.2,9.1,9.4c3.9,2.2,8.5,3.3,13.6,3.3c6,0,11-1.4,14.9-4.1
			c4-2.7,6.6-6.3,7.9-10.6h-10.9c-0.9,2-2.4,3.5-4.4,4.7c-2,1.2-4.4,1.8-7.4,1.8s-5.8-0.7-8.2-2.2s-4.2-3.5-5.5-6.1
			c-1.2-2.2-1.8-4.8-2-7.7h39.5C238.8,49,237.7,43.6,235.7,39.2L235.7,39.2z M206.6,35.8c2.2-1.4,4.8-2.1,7.5-2.1
			c4.6,0,8.3,1.6,10.9,4.7c1.9,2.3,3.1,5.2,3.7,8.7h-29.2c0.3-2,0.9-3.8,1.8-5.5C202.6,39.2,204.4,37.2,206.6,35.8L206.6,35.8z"/>
		<path d="M307.8,27.4c-2.6-1.3-5.7-2-9-2c-3.6,0-6.9,0.9-9.9,2.7c-2.6,1.6-4.5,3.6-5.8,6c-1.2-2.7-2.9-4.8-5.1-6.2
			c-2.5-1.7-5.5-2.5-8.9-2.5s-6.3,0.8-8.9,2.4c-2.3,1.4-4.1,3.2-5.3,5.5v-6.3H245v51h10.2V48.9c0-3.2,0.5-6,1.5-8.2
			c1-2.2,2.3-3.9,4-5c1.7-1.1,3.7-1.7,5.9-1.7c3,0,5.2,1,6.8,3c1.5,2,2.3,4.9,2.3,8.8V78h10.2V48.9c0-4.9,1-8.6,3.1-11.1
			s4.9-3.8,8.5-3.8c3,0,5.2,1,6.6,2.9c1.5,1.9,2.2,4.7,2.2,8.4V78h10.1V43.6c0-4-0.8-7.4-2.3-10.1C312.6,30.8,310.5,28.8,307.8,27.4
			L307.8,27.4z"/>
		<path d="M370.6,39.2c-2-4.5-4.9-7.9-8.7-10.2s-8.1-3.5-13.1-3.5c-4.5,0-8.7,1.1-12.5,3.4s-6.9,5.5-9.1,9.6s-3.4,8.8-3.4,14
			s1.1,10.2,3.2,14.3c2.1,4.1,5.1,7.2,9.1,9.4c3.9,2.2,8.5,3.3,13.6,3.3c6,0,11-1.4,15-4.1c4-2.7,6.6-6.3,7.9-10.6h-10.9
			c-0.9,2-2.4,3.5-4.4,4.7c-2,1.2-4.5,1.8-7.4,1.8s-5.8-0.7-8.2-2.2s-4.2-3.5-5.5-6.1c-1.2-2.2-1.8-4.8-2-7.7h39.5
			C373.7,49,372.7,43.6,370.6,39.2L370.6,39.2z M341.5,35.8c2.2-1.4,4.8-2.1,7.5-2.1c4.6,0,8.3,1.6,10.9,4.7
			c1.9,2.3,3.1,5.2,3.7,8.7h-29.2c0.3-2,0.9-3.8,1.8-5.5C337.5,39.2,339.3,37.2,341.5,35.8L341.5,35.8z"/>
		<path d="M414.5,27.5c-2.6-1.4-5.6-2.1-9.1-2.1s-6.6,0.8-9.4,2.4c-2.5,1.4-4.5,3.4-6,5.9v-6.8h-10V78h10.2V49.5
			c0-3.5,0.6-6.4,1.7-8.8c1.1-2.3,2.7-4.1,4.6-5.2s4.1-1.7,6.5-1.7c3.1,0,5.5,1,7.1,2.9s2.4,4.6,2.4,8.1V78h10.2V43.8
			c0-4-0.7-7.3-2.2-10.1S417.1,28.9,414.5,27.5L414.5,27.5z"/>
		<path d="M453.6,70.4c-2.5,0-4.2-0.7-5.2-2c-1-1.3-1.5-3.5-1.5-6.3V34.9h10.1v-8h-10.1V11.8h-10.1v15.1h-8.6v8h8.6v29.2
			c0,3.4,0.6,6.1,1.9,8.3s2.9,3.7,5,4.7s4.5,1.5,7.3,1.5c1.2,0,2.5-0.1,3.8-0.2c1.3-0.1,2.4-0.3,3.2-0.6V70
			C456.5,70.3,455.1,70.4,453.6,70.4z"/>
	</g>
</g>
</svg>
